PathFileType	4	(X/Y/Z)	E:\Qualisys_Data\Carbon_Farble_Plate\Data\Amateur_Runner\S14\T2\S14T2V11_c3d.trc
DataRate	CameraRate	NumFrames	NumMarkers	Units	OrigDataRate	OrigDataStartFrame	OrigNumFrames
200.000000	200.000000	4	39	mm	200.000000	125	334
Frame#	Time	LSHO			RSHO			LICST			RICST			LASIS			LHEEL			RASIS			LTROC			RTROC			SACR			LTH1			LSK4			LTH2			LTH3			RHM5			LSK2			LTH4			RTH1			LTOE			RTH2			RTH3			RTH4			LLEP			RLEP			LSK1			LSK3			RSK1			LHM5			RSK2			LFT1			RSK3			RSK4			LLME			RLME			RTOE			RHEEL			RFT1			RFT2			LFT2			
		X1	Y1	Z1	X2	Y2	Z2	X3	Y3	Z3	X4	Y4	Z4	X5	Y5	Z5	X6	Y6	Z6	X7	Y7	Z7	X8	Y8	Z8	X9	Y9	Z9	X10	Y10	Z10	X11	Y11	Z11	X12	Y12	Z12	X13	Y13	Z13	X14	Y14	Z14	X15	Y15	Z15	X16	Y16	Z16	X17	Y17	Z17	X18	Y18	Z18	X19	Y19	Z19	X20	Y20	Z20	X21	Y21	Z21	X22	Y22	Z22	X23	Y23	Z23	X24	Y24	Z24	X25	Y25	Z25	X26	Y26	Z26	X27	Y27	Z27	X28	Y28	Z28	X29	Y29	Z29	X30	Y30	Z30	X31	Y31	Z31	X32	Y32	Z32	X33	Y33	Z33	X34	Y34	Z34	X35	Y35	Z35	X36	Y36	Z36	X37	Y37	Z37	X38	Y38	Z38	X39	Y39	Z39	

126	0.625	-694.20654296875	1369.090087890625	-509.92724609375	-654.54150390625	1382.956665039062	-202.2272491455078	-743.9925537109375	941.3185424804688	-467.6578369140625	-702.8028564453125	938.1284790039062	-190.0783996582031	-700.3517456054688	891.5864868164062	-448.5521850585938	-997.261962890625	105.4201965332031	-298.7425231933594	-680.0761108398438	894.6925048828125	-211.5758666992188	-836.9127197265625	827.0574340820312	-476.7325439453125	-811.2002563476562	812.7044677734375	-153.1407623291016	-869.1163330078125	936.023193359375	-348.3038024902344	-732.8497314453125	601.500244140625	-473.8798217773438	-872.7639770507812	279.7014465332031	-402.116943359375	-805.5413818359375	591.8958129882812	-450.5631408691406	-707.4915161132812	508.4361267089844	-444.3284301757812	-982.12353515625	222.0184936523438	-142.5936889648438	-821.657958984375	360.3737182617188	-429.7491760253906	-784.3317260742188	499.1658935546875	-425.8067626953125	-605.0464477539062	645.6693725585938	-152.2507171630859	-751.91748046875	65.5080795288086	-360.5021057128906	-678.6613159179688	619.4684448242188	-138.584228515625	-569.8970947265625	552.78564453125	-172.9727783203125	-647.1676025390625	523.631103515625	-152.0646362304688	-740.9655151367188	433.6437377929688	-430.3320007324219	-609.6436157226562	473.8218383789062	-155.5622863769531	-749.8485107421875	320.7141418457031	-418.6715698242188	-804.3272094726562	237.2219085693359	-393.9715881347656	-689.2374267578125	400.1263122558594	-157.2289581298828	-827.806884765625	63.66264343261719	-416.7913818359375	-723.3283081054688	478.7420043945312	-150.0242462158203	-991.12939453125	73.19488525390625	-281.0711364746094	-786.9386596679688	367.0383911132812	-167.8810119628906	-811.3245849609375	441.8687133789062	-162.5856781005859	-936.2459106445312	121.5658416748047	-369.4197692871094	-960.10986328125	357.9475708007812	-178.30322265625	-951.7506103515624	145.9468841552734	-201.1684112548828	-1003.776306152344	399.9546508789062	-234.1132049560547	-1029.869873046875	376.1219482421875	-261.4153747558594	-1027.368774414062	393.9678344726562	-206.7563018798828	-1005.483703613281	77.56075286865234	-334.1692199707031
127	0.63	-676.1522827148438	1372.353881835938	-509.1480407714844	-640.9277954101562	1385.506958007812	-201.1842956542969	-728.8024291992188	943.5	-468.5346374511719	-684.3267211914062	940.32763671875	-191.3115234375	-684.6012573242188	893.3263549804688	-449.3063049316406	-996.6767578125	107.8696670532227	-299.1494750976562	-663.9251708984375	895.8161010742188	-212.3964538574219	-822.2847290039062	829.2797241210938	-475.9835510253906	-793.896484375	815.3814697265625	-152.6855163574219	-853.9631958007812	938.0468139648438	-351.4052124023438	-723.3369140625	601.9755859375	-473.4823303222656	-870.001220703125	281.2655029296875	-402.1509094238281	-796.4512329101562	593.9703979492188	-450.3489990234375	-701.0283203125	508.0567016601562	-443.9208374023438	-949.7131958007812	217.1337890625	-142.1501617431641	-818.5123291015625	361.6524963378906	-429.2944946289062	-777.7220458984375	500.7507934570312	-425.4530029296875	-585.8892822265625	651.6544189453125	-152.4105529785156	-751.8253784179688	65.42820739746094	-360.6950073242188	-658.583984375	624.2070922851562	-139.3606872558594	-548.17724609375	559.854736328125	-173.4884948730469	-624.7288818359375	529.16943359375	-152.626953125	-736.3731689453125	434.250244140625	-430.4101867675781	-586.1368408203125	480.5898132324219	-156.3895263671875	-747.1898803710938	321.111328125	-418.6864318847656	-802.1231689453125	238.2298889160156	-394.3018798828125	-663.2188110351562	404.0944213867188	-157.3678283691406	-828.0310668945312	62.20077514648438	-415.6332397460938	-699.5206909179688	481.5383605957031	-150.8466644287109	-989.9872436523438	75.35376739501953	-280.8756103515625	-760.26220703125	367.8900451660156	-168.8208618164062	-786.3347778320312	442.23583984375	-162.9230346679688	-935.3237915039062	123.8151550292969	-369.8580627441406	-932.623046875	353.4892578125	-178.4137725830078	-916.4879150390624	142.4324035644531	-200.6710968017578	-978.3580322265624	394.0623168945312	-233.9242858886719	-1003.450988769531	369.400146484375	-260.3852233886719	-1001.802856445312	387.0787963867188	-206.1679840087891	-1005.320739746094	79.82877349853516	-334.2971801757812
128	0.635	-658.0792846679688	1375.989135742188	-508.0499267578125	-627.1920776367188	1388.686157226562	-200.1284942626953	-712.9754028320312	945.5665893554688	-468.9194641113281	-667.9339599609375	941.2937622070312	-191.9241027832031	-668.8211669921875	895.164794921875	-450.6823120117188	-995.5291137695312	110.0226287841797	-299.6775512695312	-648.0149536132812	897.4883422851562	-212.91552734375	-807.1458740234375	831.8680419921875	-475.5968017578125	-776.4100952148438	818.74072265625	-151.8381958007812	-834.8280029296875	939.1593017578124	-352.2123413085938	-714.1009521484375	602.3739013671875	-473.2822570800781	-867.6154174804688	283.9209289550781	-402.2419128417969	-787.450439453125	597.1751098632812	-450.3388977050781	-694.5941772460938	508.0497741699219	-443.3866882324219	-916.9473876953124	212.0333862304688	-141.6657409667969	-815.331298828125	363.9093322753906	-429.1846923828125	-771.6197509765625	503.0338745117188	-425.5062255859375	-566.8931884765625	658.11767578125	-152.9599304199219	-751.73876953125	65.0897216796875	-360.751708984375	-638.9140625	628.6846313476562	-140.4674682617188	-526.895263671875	567.4024658203125	-174.1544494628906	-602.8704833984375	534.3820190429688	-153.9817810058594	-732.665283203125	434.8319396972656	-430.0750732421875	-562.7129516601562	487.1591186523438	-157.2716979980469	-744.593505859375	322.4063415527344	-418.7483825683594	-799.8351440429688	240.044677734375	-394.6966552734375	-638.0149536132812	407.6047668457031	-158.2492523193359	-827.5989990234375	62.26548004150391	-415.9321899414062	-676.4453125	484.2049560546875	-151.9040679931641	-989.1084594726562	77.30308532714844	-280.6172180175781	-733.505615234375	368.5424499511719	-169.4391021728516	-761.7601928710938	442.4403381347656	-162.9970550537109	-934.2156982421876	125.898811340332	-369.958984375	-905.448486328125	348.5824890136719	-178.2255096435547	-881.11083984375	138.7392730712891	-200.2776641845703	-953.4873046875	389.0964965820312	-233.8500061035156	-977.302734375	362.1783447265625	-259.6249084472656	-976.19921875	379.6044311523438	-205.8187713623047	-1002.621337890625	81.92346954345703	-334.2373962402344
129	0.64	-639.8636474609375	1379.953247070312	-507.3565979003906	-613.7118530273438	1391.971923828125	-199.2688446044922	-696.6228637695312	947.8941650390624	-469.3236694335938	-653.0769653320312	943.41015625	-192.0034942626953	-652.5335693359375	897.6878051757812	-451.8005981445312	-995.6697998046876	112.2766647338867	-299.0061340332031	-630.87548828125	899.494140625	-213.9143218994141	-791.5691528320312	834.1964721679688	-475.0925598144531	-758.9104614257812	822.5916748046875	-151.2604675292969	-818.8683471679688	941.92138671875	-355.0320739746094	-704.9036865234375	603.614013671875	-472.748046875	-864.9889526367188	286.5784301757812	-401.6361694335938	-778.203369140625	600.4888916015625	-450.1680908203125	-688.2462768554688	508.8036193847656	-443.3125	-883.410888671875	207.4826507568359	-141.1811218261719	-812.4625854492188	366.5349731445312	-428.0939025878906	-765.7869873046875	505.9222106933594	-425.0910339355469	-547.587646484375	664.4993896484375	-153.6805114746094	-751.4736328125	64.97111511230469	-360.8647766113281	-619.1869506835938	633.8014526367188	-140.5700836181641	-505.7902221679688	574.9979858398438	-175.0339202880859	-580.9846801757812	540.1483154296875	-154.5802307128906	-728.4590454101562	436.5083618164062	-429.8432312011719	-539.760498046875	494.0687561035156	-157.979736328125	-741.6045532226562	324.0616149902344	-418.9541320800781	-797.7799072265625	242.2481689453125	-395.1847534179688	-612.7144775390625	411.7228393554688	-159.59375	-826.8890380859375	62.67437744140625	-415.9831237792969	-653.434326171875	487.236083984375	-152.8447418212891	-988.5631713867188	80.05680084228516	-280.6081848144531	-706.72021484375	369.5388488769531	-169.2986297607422	-737.896484375	442.630615234375	-163.6307373046875	-932.6013793945312	129.0409545898438	-370.0846557617188	-878.3276977539062	344.0805969238281	-178.0357666015625	-844.7442626953125	135.3074035644531	-199.3527069091797	-927.4896850585938	382.2454528808594	-231.6380004882812	-951.2161865234376	354.0453491210938	-259.98046875	-950.23193359375	372.0370788574219	-205.8323516845703	-1001.681518554688	84.32661437988281	-334.4802551269531
